<?xml version="1.0" encoding="UTF-8" standalone="no"?>
<!DOCTYPE svg PUBLIC "-//W3C//DTD SVG 1.1//EN"
 "http://www.w3.org/Graphics/SVG/1.1/DTD/svg11.dtd">
<!-- Generated by graphviz version 2.40.1 (20161225.0304)
 -->
<!-- Title: WFST Pages: 1 -->
<svg width="524pt" height="162pt"
 viewBox="0.00 0.00 524.00 161.83" xmlns="http://www.w3.org/2000/svg" xmlns:xlink="http://www.w3.org/1999/xlink">
<g id="graph0" class="graph" transform="scale(1 1) rotate(0) translate(4 157.8285)">
<title>WFST</title>
<polygon fill="#ffffff" stroke="transparent" points="-4,4 -4,-157.8285 520,-157.8285 520,4 -4,4"/>
<!-- 0 -->
<g id="node1" class="node">
<title>0</title>
<ellipse fill="none" stroke="#000000" stroke-width="2" cx="18" cy="-114.8285" rx="18" ry="18"/>
<text text-anchor="middle" x="18" y="-111.1285" font-family="Times,serif" font-size="14.00" fill="#000000">0</text>
</g>
<!-- 5 -->
<g id="node2" class="node">
<title>5</title>
<ellipse fill="none" stroke="#000000" stroke-width="2" cx="115" cy="-80.8285" rx="18" ry="18"/>
<text text-anchor="middle" x="115" y="-77.1285" font-family="Times,serif" font-size="14.00" fill="#000000">5</text>
</g>
<!-- 0&#45;&gt;5 -->
<g id="edge1" class="edge">
<title>0&#45;&gt;5</title>
<path fill="none" stroke="#000000" d="M35.3417,-108.75C49.9629,-103.625 71.136,-96.2035 87.9785,-90.2999"/>
<polygon fill="#000000" stroke="#000000" points="89.5292,-93.4652 97.8085,-86.8544 87.2136,-86.8593 89.5292,-93.4652"/>
<text text-anchor="middle" x="66.5" y="-106.6285" font-family="Times,serif" font-size="14.00" fill="#000000">a:a/&#45;3</text>
</g>
<!-- 3 -->
<g id="node3" class="node">
<title>3</title>
<ellipse fill="none" stroke="#000000" stroke-width="2" cx="365" cy="-118.8285" rx="18" ry="18"/>
<text text-anchor="middle" x="365" y="-115.1285" font-family="Times,serif" font-size="14.00" fill="#000000">3</text>
</g>
<!-- 0&#45;&gt;3 -->
<g id="edge2" class="edge">
<title>0&#45;&gt;3</title>
<path fill="none" stroke="#000000" d="M35.7161,-119.1771C40.6363,-120.2231 46.0008,-121.2145 51,-121.8285 150.7578,-134.0802 176.5084,-128.0504 277,-129.8285 301.4406,-130.2609 307.8712,-133.744 332,-129.8285 334.0957,-129.4884 336.2381,-129.0343 338.375,-128.5038"/>
<polygon fill="#000000" stroke="#000000" points="339.5445,-131.8077 348.1357,-125.6075 337.5531,-125.0969 339.5445,-131.8077"/>
<text text-anchor="middle" x="176" y="-132.6285" font-family="Times,serif" font-size="14.00" fill="#000000">#0:ε/&#45;5.76</text>
</g>
<!-- 1 -->
<g id="node4" class="node">
<title>1</title>
<ellipse fill="none" stroke="#000000" stroke-width="2" cx="240.5" cy="-80.8285" rx="18" ry="18"/>
<text text-anchor="middle" x="240.5" y="-77.1285" font-family="Times,serif" font-size="14.00" fill="#000000">1</text>
</g>
<!-- 5&#45;&gt;1 -->
<g id="edge12" class="edge">
<title>5&#45;&gt;1</title>
<path fill="none" stroke="#000000" d="M133.2488,-80.8285C153.9755,-80.8285 188.0479,-80.8285 212.2225,-80.8285"/>
<polygon fill="#000000" stroke="#000000" points="212.2292,-84.3286 222.2292,-80.8285 212.2292,-77.3286 212.2292,-84.3286"/>
<text text-anchor="middle" x="176" y="-84.6285" font-family="Times,serif" font-size="14.00" fill="#000000">#0:ε/&#45;9.67</text>
</g>
<!-- 4 -->
<g id="node5" class="node">
<title>4</title>
<ellipse fill="none" stroke="#000000" stroke-width="2" cx="365" cy="-25.8285" rx="18" ry="18"/>
<text text-anchor="middle" x="365" y="-22.1285" font-family="Times,serif" font-size="14.00" fill="#000000">4</text>
</g>
<!-- 5&#45;&gt;4 -->
<g id="edge11" class="edge">
<title>5&#45;&gt;4</title>
<path fill="none" stroke="#000000" d="M131.5714,-72.9512C151.7982,-63.6161 187.2382,-48.1554 219,-38.8285 244.1743,-31.436 250.9074,-30.5803 277,-27.8285 296.8849,-25.7313 319.4315,-25.2554 336.7244,-25.2914"/>
<polygon fill="#000000" stroke="#000000" points="336.7148,-28.7913 346.742,-25.37 336.7698,-21.7915 336.7148,-28.7913"/>
<text text-anchor="middle" x="240.5" y="-42.6285" font-family="Times,serif" font-size="14.00" fill="#000000">b:b/&#45;0.8</text>
</g>
<!-- 3&#45;&gt;1 -->
<g id="edge6" class="edge">
<title>3&#45;&gt;1</title>
<path fill="none" stroke="#000000" d="M356.6728,-102.5369C351.0562,-93.4509 342.7137,-82.9582 332,-77.8285 312.0423,-68.2727 286.731,-69.9975 267.7913,-73.5596"/>
<polygon fill="#000000" stroke="#000000" points="267.0386,-70.1414 257.9992,-75.6676 268.5118,-76.9846 267.0386,-70.1414"/>
<text text-anchor="middle" x="304.5" y="-81.6285" font-family="Times,serif" font-size="14.00" fill="#000000">a:a/&#45;12.05</text>
</g>
<!-- 2 -->
<g id="node6" class="node">
<title>2</title>
<ellipse fill="none" stroke="#000000" stroke-width="2" cx="494" cy="-118.8285" rx="18" ry="18"/>
<text text-anchor="middle" x="494" y="-115.1285" font-family="Times,serif" font-size="14.00" fill="#000000">2</text>
</g>
<!-- 3&#45;&gt;2 -->
<g id="edge7" class="edge">
<title>3&#45;&gt;2</title>
<path fill="none" stroke="#000000" d="M380.5774,-128.1628C385.9127,-130.8684 392.0427,-133.4604 398,-134.8285 423.557,-140.6974 431.3219,-140.1427 457,-134.8285 460.7864,-134.0449 464.6619,-132.8542 468.4116,-131.4688"/>
<polygon fill="#000000" stroke="#000000" points="470.0271,-134.5866 477.8959,-127.4921 467.3204,-128.1311 470.0271,-134.5866"/>
<text text-anchor="middle" x="427.5" y="-142.6285" font-family="Times,serif" font-size="14.00" fill="#000000">b:b/&#45;7.96</text>
</g>
<!-- 6 -->
<g id="node7" class="node">
<title>6</title>
<ellipse fill="none" stroke="#000000" stroke-width="2" cx="494" cy="-32.8285" rx="18" ry="18"/>
<ellipse fill="none" stroke="#000000" stroke-width="2" cx="494" cy="-32.8285" rx="22" ry="22"/>
<text text-anchor="middle" x="494" y="-29.1285" font-family="Times,serif" font-size="14.00" fill="#000000">6</text>
</g>
<!-- 3&#45;&gt;6 -->
<g id="edge8" class="edge">
<title>3&#45;&gt;6</title>
<path fill="none" stroke="#000000" d="M380.4087,-109.0101C398.7689,-97.2581 430.3158,-76.8974 457,-58.8285 460.5104,-56.4514 464.1862,-53.9203 467.8014,-51.4059"/>
<polygon fill="#000000" stroke="#000000" points="469.8373,-54.2531 476.0204,-45.6497 465.8217,-48.5194 469.8373,-54.2531"/>
<text text-anchor="middle" x="427.5" y="-100.6285" font-family="Times,serif" font-size="14.00" fill="#000000">&#45;1:&#45;1/&#45;9.98</text>
</g>
<!-- 1&#45;&gt;3 -->
<g id="edge4" class="edge">
<title>1&#45;&gt;3</title>
<path fill="none" stroke="#000000" d="M256.9835,-88.7566C263.1703,-91.5447 270.3214,-94.5479 277,-96.8285 296.7466,-103.5713 319.6264,-109.2278 337.1063,-113.1161"/>
<polygon fill="#000000" stroke="#000000" points="336.7019,-116.6095 347.2158,-115.3026 338.1817,-109.7677 336.7019,-116.6095"/>
<text text-anchor="middle" x="304.5" y="-114.6285" font-family="Times,serif" font-size="14.00" fill="#000000">#0:ε/&#45;7.6</text>
</g>
<!-- 1&#45;&gt;4 -->
<g id="edge3" class="edge">
<title>1&#45;&gt;4</title>
<path fill="none" stroke="#000000" d="M253.4093,-67.9885C260.0006,-62.0431 268.4254,-55.3185 277,-50.8285 295.9363,-40.9127 319.2841,-34.5131 337.1712,-30.6733"/>
<polygon fill="#000000" stroke="#000000" points="337.8816,-34.1006 346.9972,-28.7011 336.504,-27.2375 337.8816,-34.1006"/>
<text text-anchor="middle" x="304.5" y="-54.6285" font-family="Times,serif" font-size="14.00" fill="#000000">b:b/&#45;3.35</text>
</g>
<!-- 4&#45;&gt;2 -->
<g id="edge9" class="edge">
<title>4&#45;&gt;2</title>
<path fill="none" stroke="#000000" d="M383.1525,-23.8491C403.2128,-22.6517 435.519,-23.7714 457,-39.8285 461.6549,-43.308 474.0291,-71.0151 483.1926,-92.6462"/>
<polygon fill="#000000" stroke="#000000" points="480.0411,-94.1815 487.1376,-102.0485 486.4959,-91.4731 480.0411,-94.1815"/>
<text text-anchor="middle" x="427.5" y="-43.6285" font-family="Times,serif" font-size="14.00" fill="#000000">#0:ε/&#45;7.44</text>
</g>
<!-- 4&#45;&gt;6 -->
<g id="edge10" class="edge">
<title>4&#45;&gt;6</title>
<path fill="none" stroke="#000000" d="M379.3134,-14.8196C384.8432,-11.2156 391.4188,-7.6671 398,-5.8285 423.2551,1.2273 432.0696,2.3006 457,-5.8285 461.3708,-7.2537 465.6545,-9.4121 469.6674,-11.9"/>
<polygon fill="#000000" stroke="#000000" points="467.7537,-14.8329 477.9488,-17.7157 471.7766,-9.1044 467.7537,-14.8329"/>
<text text-anchor="middle" x="427.5" y="-9.6285" font-family="Times,serif" font-size="14.00" fill="#000000">&#45;1:&#45;1/&#45;0.55</text>
</g>
<!-- 2&#45;&gt;3 -->
<g id="edge5" class="edge">
<title>2&#45;&gt;3</title>
<path fill="none" stroke="#000000" d="M475.8837,-118.8285C454.413,-118.8285 418.3853,-118.8285 393.2434,-118.8285"/>
<polygon fill="#000000" stroke="#000000" points="393.209,-115.3286 383.2089,-118.8285 393.2089,-122.3286 393.209,-115.3286"/>
<text text-anchor="middle" x="427.5" y="-122.6285" font-family="Times,serif" font-size="14.00" fill="#000000">#0:ε/0</text>
</g>
</g>
</svg>
