<?xml version="1.0" encoding="UTF-8" standalone="no"?>
<!DOCTYPE svg PUBLIC "-//W3C//DTD SVG 1.1//EN"
 "http://www.w3.org/Graphics/SVG/1.1/DTD/svg11.dtd">
<!-- Generated by graphviz version 2.40.1 (20161225.0304)
 -->
<!-- Title: WFST Pages: 1 -->
<svg width="524pt" height="185pt"
 viewBox="0.00 0.00 524.00 184.83" xmlns="http://www.w3.org/2000/svg" xmlns:xlink="http://www.w3.org/1999/xlink">
<g id="graph0" class="graph" transform="scale(1 1) rotate(0) translate(4 180.8285)">
<title>WFST</title>
<polygon fill="#ffffff" stroke="transparent" points="-4,4 -4,-180.8285 520,-180.8285 520,4 -4,4"/>
<text text-anchor="middle" x="258" y="-7.8" font-family="Times,serif" font-size="14.00" fill="#000000">G</text>
<!-- 0 -->
<g id="node1" class="node">
<title>0</title>
<ellipse fill="none" stroke="#000000" stroke-width="2" cx="18" cy="-137.8285" rx="18" ry="18"/>
<text text-anchor="middle" x="18" y="-134.1285" font-family="Times,serif" font-size="14.00" fill="#000000">0</text>
</g>
<!-- 5 -->
<g id="node2" class="node">
<title>5</title>
<ellipse fill="none" stroke="#000000" stroke-width="2" cx="115" cy="-103.8285" rx="18" ry="18"/>
<text text-anchor="middle" x="115" y="-100.1285" font-family="Times,serif" font-size="14.00" fill="#000000">5</text>
</g>
<!-- 0&#45;&gt;5 -->
<g id="edge1" class="edge">
<title>0&#45;&gt;5</title>
<path fill="none" stroke="#000000" d="M35.3417,-131.75C49.9629,-126.625 71.136,-119.2035 87.9785,-113.2999"/>
<polygon fill="#000000" stroke="#000000" points="89.5292,-116.4652 97.8085,-109.8544 87.2136,-109.8593 89.5292,-116.4652"/>
<text text-anchor="middle" x="66.5" y="-129.6285" font-family="Times,serif" font-size="14.00" fill="#000000">a:a/&#45;3</text>
</g>
<!-- 3 -->
<g id="node3" class="node">
<title>3</title>
<ellipse fill="none" stroke="#000000" stroke-width="2" cx="365" cy="-141.8285" rx="18" ry="18"/>
<text text-anchor="middle" x="365" y="-138.1285" font-family="Times,serif" font-size="14.00" fill="#000000">3</text>
</g>
<!-- 0&#45;&gt;3 -->
<g id="edge2" class="edge">
<title>0&#45;&gt;3</title>
<path fill="none" stroke="#000000" d="M35.7161,-142.1771C40.6363,-143.2231 46.0008,-144.2145 51,-144.8285 150.7578,-157.0802 176.5084,-151.0504 277,-152.8285 301.4406,-153.2609 307.8712,-156.744 332,-152.8285 334.0957,-152.4884 336.2381,-152.0343 338.375,-151.5038"/>
<polygon fill="#000000" stroke="#000000" points="339.5445,-154.8077 348.1357,-148.6075 337.5531,-148.0969 339.5445,-154.8077"/>
<text text-anchor="middle" x="176" y="-155.6285" font-family="Times,serif" font-size="14.00" fill="#000000">#0:ε/&#45;5.76</text>
</g>
<!-- 1 -->
<g id="node4" class="node">
<title>1</title>
<ellipse fill="none" stroke="#000000" stroke-width="2" cx="240.5" cy="-103.8285" rx="18" ry="18"/>
<text text-anchor="middle" x="240.5" y="-100.1285" font-family="Times,serif" font-size="14.00" fill="#000000">1</text>
</g>
<!-- 5&#45;&gt;1 -->
<g id="edge12" class="edge">
<title>5&#45;&gt;1</title>
<path fill="none" stroke="#000000" d="M133.2488,-103.8285C153.9755,-103.8285 188.0479,-103.8285 212.2225,-103.8285"/>
<polygon fill="#000000" stroke="#000000" points="212.2292,-107.3286 222.2292,-103.8285 212.2292,-100.3286 212.2292,-107.3286"/>
<text text-anchor="middle" x="176" y="-107.6285" font-family="Times,serif" font-size="14.00" fill="#000000">#0:ε/&#45;9.67</text>
</g>
<!-- 4 -->
<g id="node5" class="node">
<title>4</title>
<ellipse fill="none" stroke="#000000" stroke-width="2" cx="365" cy="-48.8285" rx="18" ry="18"/>
<text text-anchor="middle" x="365" y="-45.1285" font-family="Times,serif" font-size="14.00" fill="#000000">4</text>
</g>
<!-- 5&#45;&gt;4 -->
<g id="edge11" class="edge">
<title>5&#45;&gt;4</title>
<path fill="none" stroke="#000000" d="M131.5714,-95.9512C151.7982,-86.6161 187.2382,-71.1554 219,-61.8285 244.1743,-54.436 250.9074,-53.5803 277,-50.8285 296.8849,-48.7313 319.4315,-48.2554 336.7244,-48.2914"/>
<polygon fill="#000000" stroke="#000000" points="336.7148,-51.7913 346.742,-48.37 336.7698,-44.7915 336.7148,-51.7913"/>
<text text-anchor="middle" x="240.5" y="-65.6285" font-family="Times,serif" font-size="14.00" fill="#000000">b:b/&#45;0.8</text>
</g>
<!-- 3&#45;&gt;1 -->
<g id="edge6" class="edge">
<title>3&#45;&gt;1</title>
<path fill="none" stroke="#000000" d="M356.6728,-125.5369C351.0562,-116.4509 342.7137,-105.9582 332,-100.8285 312.0423,-91.2727 286.731,-92.9975 267.7913,-96.5596"/>
<polygon fill="#000000" stroke="#000000" points="267.0386,-93.1414 257.9992,-98.6676 268.5118,-99.9846 267.0386,-93.1414"/>
<text text-anchor="middle" x="304.5" y="-104.6285" font-family="Times,serif" font-size="14.00" fill="#000000">a:a/&#45;12.05</text>
</g>
<!-- 2 -->
<g id="node6" class="node">
<title>2</title>
<ellipse fill="none" stroke="#000000" stroke-width="2" cx="494" cy="-141.8285" rx="18" ry="18"/>
<text text-anchor="middle" x="494" y="-138.1285" font-family="Times,serif" font-size="14.00" fill="#000000">2</text>
</g>
<!-- 3&#45;&gt;2 -->
<g id="edge7" class="edge">
<title>3&#45;&gt;2</title>
<path fill="none" stroke="#000000" d="M380.5774,-151.1628C385.9127,-153.8684 392.0427,-156.4604 398,-157.8285 423.557,-163.6974 431.3219,-163.1427 457,-157.8285 460.7864,-157.0449 464.6619,-155.8542 468.4116,-154.4688"/>
<polygon fill="#000000" stroke="#000000" points="470.0271,-157.5866 477.8959,-150.4921 467.3204,-151.1311 470.0271,-157.5866"/>
<text text-anchor="middle" x="427.5" y="-165.6285" font-family="Times,serif" font-size="14.00" fill="#000000">b:b/&#45;7.96</text>
</g>
<!-- 6 -->
<g id="node7" class="node">
<title>6</title>
<ellipse fill="none" stroke="#000000" stroke-width="2" cx="494" cy="-55.8285" rx="18" ry="18"/>
<ellipse fill="none" stroke="#000000" stroke-width="2" cx="494" cy="-55.8285" rx="22" ry="22"/>
<text text-anchor="middle" x="494" y="-52.1285" font-family="Times,serif" font-size="14.00" fill="#000000">6</text>
</g>
<!-- 3&#45;&gt;6 -->
<g id="edge8" class="edge">
<title>3&#45;&gt;6</title>
<path fill="none" stroke="#000000" d="M380.4087,-132.0101C398.7689,-120.2581 430.3158,-99.8974 457,-81.8285 460.5104,-79.4514 464.1862,-76.9203 467.8014,-74.4059"/>
<polygon fill="#000000" stroke="#000000" points="469.8373,-77.2531 476.0204,-68.6497 465.8217,-71.5194 469.8373,-77.2531"/>
<text text-anchor="middle" x="427.5" y="-123.6285" font-family="Times,serif" font-size="14.00" fill="#000000">&#45;1:&#45;1/&#45;9.98</text>
</g>
<!-- 1&#45;&gt;3 -->
<g id="edge4" class="edge">
<title>1&#45;&gt;3</title>
<path fill="none" stroke="#000000" d="M256.9835,-111.7566C263.1703,-114.5447 270.3214,-117.5479 277,-119.8285 296.7466,-126.5713 319.6264,-132.2278 337.1063,-136.1161"/>
<polygon fill="#000000" stroke="#000000" points="336.7019,-139.6095 347.2158,-138.3026 338.1817,-132.7677 336.7019,-139.6095"/>
<text text-anchor="middle" x="304.5" y="-137.6285" font-family="Times,serif" font-size="14.00" fill="#000000">#0:ε/&#45;7.6</text>
</g>
<!-- 1&#45;&gt;4 -->
<g id="edge3" class="edge">
<title>1&#45;&gt;4</title>
<path fill="none" stroke="#000000" d="M253.4093,-90.9885C260.0006,-85.0431 268.4254,-78.3185 277,-73.8285 295.9363,-63.9127 319.2841,-57.5131 337.1712,-53.6733"/>
<polygon fill="#000000" stroke="#000000" points="337.8816,-57.1006 346.9972,-51.7011 336.504,-50.2375 337.8816,-57.1006"/>
<text text-anchor="middle" x="304.5" y="-77.6285" font-family="Times,serif" font-size="14.00" fill="#000000">b:b/&#45;3.35</text>
</g>
<!-- 4&#45;&gt;2 -->
<g id="edge9" class="edge">
<title>4&#45;&gt;2</title>
<path fill="none" stroke="#000000" d="M383.1525,-46.8491C403.2128,-45.6517 435.519,-46.7714 457,-62.8285 461.6549,-66.308 474.0291,-94.0151 483.1926,-115.6462"/>
<polygon fill="#000000" stroke="#000000" points="480.0411,-117.1815 487.1376,-125.0485 486.4959,-114.4731 480.0411,-117.1815"/>
<text text-anchor="middle" x="427.5" y="-66.6285" font-family="Times,serif" font-size="14.00" fill="#000000">#0:ε/&#45;7.44</text>
</g>
<!-- 4&#45;&gt;6 -->
<g id="edge10" class="edge">
<title>4&#45;&gt;6</title>
<path fill="none" stroke="#000000" d="M379.3134,-37.8196C384.8432,-34.2156 391.4188,-30.6671 398,-28.8285 423.2551,-21.7727 432.0696,-20.6994 457,-28.8285 461.3708,-30.2537 465.6545,-32.4121 469.6674,-34.9"/>
<polygon fill="#000000" stroke="#000000" points="467.7537,-37.8329 477.9488,-40.7157 471.7766,-32.1044 467.7537,-37.8329"/>
<text text-anchor="middle" x="427.5" y="-32.6285" font-family="Times,serif" font-size="14.00" fill="#000000">&#45;1:&#45;1/&#45;0.55</text>
</g>
<!-- 2&#45;&gt;3 -->
<g id="edge5" class="edge">
<title>2&#45;&gt;3</title>
<path fill="none" stroke="#000000" d="M475.8837,-141.8285C454.413,-141.8285 418.3853,-141.8285 393.2434,-141.8285"/>
<polygon fill="#000000" stroke="#000000" points="393.209,-138.3286 383.2089,-141.8285 393.2089,-145.3286 393.209,-138.3286"/>
<text text-anchor="middle" x="427.5" y="-145.6285" font-family="Times,serif" font-size="14.00" fill="#000000">#0:ε/0</text>
</g>
</g>
</svg>
