<?xml version="1.0" encoding="UTF-8" standalone="no"?><!DOCTYPE svg PUBLIC "-//W3C//DTD SVG 1.1//EN" "http://www.w3.org/Graphics/SVG/1.1/DTD/svg11.dtd"><!-- Generated by graphviz version 2.40.1 (20161225.0304)
 --><!-- Title: WFST Pages: 1 --><svg xmlns="http://www.w3.org/2000/svg" xmlns:xlink="http://www.w3.org/1999/xlink" width="532pt" height="197pt" viewBox="0.00 0.00 531.55 196.78">
<g id="graph0" class="graph" transform="scale(1 1) rotate(0) translate(4 192.7804)">
<title>WFST</title>
<polygon fill="#ffffff" stroke="transparent" points="-4,4 -4,-192.7804 527.5492,-192.7804 527.5492,4 -4,4"/>
<text text-anchor="middle" x="261.7746" y="-8.2" font-family="Times,serif" font-size="14.00" fill="#000000">G</text>
<!-- 0 -->
<g id="node1" class="node">
<title>0</title>
<ellipse fill="none" stroke="#000000" stroke-width="2" cx="18" cy="-145.9804" rx="18" ry="18"/>
<text text-anchor="middle" x="18" y="-141.7804" font-family="Times,serif" font-size="14.00" fill="#000000">0</text>
</g>
<!-- 5 -->
<g id="node2" class="node">
<title>5</title>
<ellipse fill="none" stroke="#000000" stroke-width="2" cx="115.871" cy="-109.9804" rx="18" ry="18"/>
<text text-anchor="middle" x="115.871" y="-105.7804" font-family="Times,serif" font-size="14.00" fill="#000000">5</text>
</g>
<!-- 0&#45;&gt;5 -->
<g id="edge1" class="edge">
<title>0-&gt;5</title>
<path fill="none" stroke="#000000" d="M35.0478,-139.7097C49.9727,-134.2199 71.9068,-126.1518 89.1606,-119.8053"/>
<polygon fill="#000000" stroke="#000000" points="90.5132,-123.0371 98.6901,-116.3001 88.0966,-116.4675 90.5132,-123.0371"/>
<text text-anchor="middle" x="66.9355" y="-137.1804" font-family="Times,serif" font-size="14.00" fill="#000000">a:a/-3</text>
</g>
<!-- 3 -->
<g id="node3" class="node">
<title>3</title>
<ellipse fill="none" stroke="#000000" stroke-width="2" cx="371.2862" cy="-149.9804" rx="18" ry="18"/>
<text text-anchor="middle" x="371.2862" y="-145.7804" font-family="Times,serif" font-size="14.00" fill="#000000">3</text>
</g>
<!-- 0&#45;&gt;3 -->
<g id="edge2" class="edge">
<title>0-&gt;3</title>
<path fill="none" stroke="#000000" d="M35.3462,-150.8554C40.3589,-152.0812 45.8635,-153.2536 51,-153.9804 152.7121,-168.3717 179.2141,-161.7577 281.9152,-163.9804 306.9631,-164.5225 313.7349,-168.9729 338.2862,-163.9804 340.7943,-163.4704 343.3481,-162.763 345.8683,-161.9347"/>
<polygon fill="#000000" stroke="#000000" points="347.1903,-165.1761 355.2536,-158.3034 344.6643,-158.6477 347.1903,-165.1761"/>
<text text-anchor="middle" x="178.4222" y="-167.1804" font-family="Times,serif" font-size="14.00" fill="#000000">#0:ε/-5.76</text>
</g>
<!-- 1 -->
<g id="node4" class="node">
<title>1</title>
<ellipse fill="none" stroke="#000000" stroke-width="2" cx="244.9443" cy="-109.9804" rx="18" ry="18"/>
<text text-anchor="middle" x="244.9443" y="-105.7804" font-family="Times,serif" font-size="14.00" fill="#000000">1</text>
</g>
<!-- 5&#45;&gt;1 -->
<g id="edge12" class="edge">
<title>5-&gt;1</title>
<path fill="none" stroke="#000000" d="M134.0903,-109.9804C155.615,-109.9804 191.6684,-109.9804 216.7932,-109.9804"/>
<polygon fill="#000000" stroke="#000000" points="216.8177,-113.4805 226.8177,-109.9804 216.8177,-106.4805 216.8177,-113.4805"/>
<text text-anchor="middle" x="178.4222" y="-114.1804" font-family="Times,serif" font-size="14.00" fill="#000000">#0:ε/-9.67</text>
</g>
<!-- 4 -->
<g id="node5" class="node">
<title>4</title>
<ellipse fill="none" stroke="#000000" stroke-width="2" cx="371.2862" cy="-52.9804" rx="18" ry="18"/>
<text text-anchor="middle" x="371.2862" y="-48.7804" font-family="Times,serif" font-size="14.00" fill="#000000">4</text>
</g>
<!-- 5&#45;&gt;4 -->
<g id="edge11" class="edge">
<title>5-&gt;4</title>
<path fill="none" stroke="#000000" d="M132.1965,-102.0977C152.8841,-92.3928 189.8434,-75.9944 222.9734,-66.1804 248.5403,-58.6068 255.3972,-57.7771 281.9152,-54.9804 302.2375,-52.8371 325.2976,-52.3695 342.9028,-52.4208"/>
<polygon fill="#000000" stroke="#000000" points="343.0563,-55.9222 353.0864,-52.5095 343.1173,-48.9225 343.0563,-55.9222"/>
<text text-anchor="middle" x="244.9443" y="-71.1804" font-family="Times,serif" font-size="14.00" fill="#000000">b:b/-0.8</text>
</g>
<!-- 3&#45;&gt;1 -->
<g id="edge6" class="edge">
<title>3-&gt;1</title>
<path fill="none" stroke="#000000" d="M363.3823,-133.4298C357.8269,-123.8538 349.4006,-112.6454 338.2862,-107.1804 317.9087,-97.1608 291.8881,-98.9432 272.4992,-102.6126"/>
<polygon fill="#000000" stroke="#000000" points="271.5195,-99.2436 262.4877,-104.7824 273.0022,-106.0848 271.5195,-99.2436"/>
<text text-anchor="middle" x="310.1007" y="-111.1804" font-family="Times,serif" font-size="14.00" fill="#000000">a:a/-12.05</text>
</g>
<!-- 2 -->
<g id="node6" class="node">
<title>2</title>
<ellipse fill="none" stroke="#000000" stroke-width="2" cx="501.5492" cy="-149.9804" rx="18" ry="18"/>
<text text-anchor="middle" x="501.5492" y="-145.7804" font-family="Times,serif" font-size="14.00" fill="#000000">2</text>
</g>
<!-- 3&#45;&gt;2 -->
<g id="edge7" class="edge">
<title>3-&gt;2</title>
<path fill="none" stroke="#000000" d="M386.3988,-160.2807C391.8005,-163.392 398.089,-166.4002 404.2862,-167.9804 430.2393,-174.5983 438.4491,-173.9923 464.5492,-167.9804 468.5845,-167.0509 472.6895,-165.6194 476.6256,-163.961"/>
<polygon fill="#000000" stroke="#000000" points="478.4058,-166.9898 485.9266,-159.5273 475.3936,-160.671 478.4058,-166.9898"/>
<text text-anchor="middle" x="434.4177" y="-176.1804" font-family="Times,serif" font-size="14.00" fill="#000000">b:b/-7.96</text>
</g>
<!-- 6 -->
<g id="node7" class="node">
<title>6</title>
<ellipse fill="none" stroke="#000000" stroke-width="2" cx="501.5492" cy="-60.9804" rx="18" ry="18"/>
<ellipse fill="none" stroke="#000000" stroke-width="2" cx="501.5492" cy="-60.9804" rx="22" ry="22"/>
<text text-anchor="middle" x="501.5492" y="-56.7804" font-family="Times,serif" font-size="14.00" fill="#000000">6</text>
</g>
<!-- 3&#45;&gt;6 -->
<g id="edge8" class="edge">
<title>3-&gt;6</title>
<path fill="none" stroke="#000000" d="M386.6084,-140.088C405.2015,-128.0166 437.43,-106.8761 464.5492,-87.9804 468.0724,-85.5256 471.7556,-82.905 475.3745,-80.2978"/>
<polygon fill="#000000" stroke="#000000" points="477.5642,-83.0332 483.5963,-74.3232 473.4491,-77.3704 477.5642,-83.0332"/>
<text text-anchor="middle" x="434.4177" y="-132.1804" font-family="Times,serif" font-size="14.00" fill="#000000">-1:-1/-9.98</text>
</g>
<!-- 1&#45;&gt;3 -->
<g id="edge4" class="edge">
<title>1-&gt;3</title>
<path fill="none" stroke="#000000" d="M260.8198,-118.6256C267.238,-121.8767 274.7996,-125.4054 281.9152,-127.9804 302.1372,-135.2985 325.7978,-141.0025 343.6924,-144.767"/>
<polygon fill="#000000" stroke="#000000" points="342.9961,-148.1969 353.4926,-146.7568 344.389,-141.3369 342.9961,-148.1969"/>
<text text-anchor="middle" x="310.1007" y="-147.1804" font-family="Times,serif" font-size="14.00" fill="#000000">#0:ε/-7.6</text>
</g>
<!-- 1&#45;&gt;4 -->
<g id="edge3" class="edge">
<title>1-&gt;4</title>
<path fill="none" stroke="#000000" d="M257.5813,-96.6596C264.2806,-90.2725 272.9636,-82.985 281.9152,-78.1804 301.1508,-67.8562 325.0443,-61.4031 343.2851,-57.6145"/>
<polygon fill="#000000" stroke="#000000" points="344.1383,-61.0145 353.2938,-55.6827 342.8116,-54.1414 344.1383,-61.0145"/>
<text text-anchor="middle" x="310.1007" y="-83.1804" font-family="Times,serif" font-size="14.00" fill="#000000">b:b/-3.35</text>
</g>
<!-- 4&#45;&gt;2 -->
<g id="edge9" class="edge">
<title>4-&gt;2</title>
<path fill="none" stroke="#000000" d="M389.375,-50.9275C409.7307,-49.6157 442.7889,-50.6097 464.5492,-67.1804 469.4322,-70.8988 482.0933,-100.8051 491.2459,-123.6185"/>
<polygon fill="#000000" stroke="#000000" points="488.0969,-125.1718 495.0421,-133.1726 494.6022,-122.5869 488.0969,-125.1718"/>
<text text-anchor="middle" x="434.4177" y="-72.1804" font-family="Times,serif" font-size="14.00" fill="#000000">#0:ε/-7.44</text>
</g>
<!-- 4&#45;&gt;6 -->
<g id="edge10" class="edge">
<title>4-&gt;6</title>
<path fill="none" stroke="#000000" d="M385.1394,-41.2241C390.7186,-37.2186 397.4472,-33.2354 404.2862,-31.1804 429.9368,-23.4729 439.2901,-22.2733 464.5492,-31.1804 469.4788,-32.9187 474.2353,-35.6227 478.6022,-38.7076"/>
<polygon fill="#000000" stroke="#000000" points="476.4567,-41.4733 486.4628,-44.9559 480.8125,-35.9935 476.4567,-41.4733"/>
<text text-anchor="middle" x="434.4177" y="-36.1804" font-family="Times,serif" font-size="14.00" fill="#000000">-1:-1/-0.55</text>
</g>
<!-- 2&#45;&gt;3 -->
<g id="edge5" class="edge">
<title>2-&gt;3</title>
<path fill="none" stroke="#000000" d="M483.1706,-149.9804C461.3958,-149.9804 424.88,-149.9804 399.5125,-149.9804"/>
<polygon fill="#000000" stroke="#000000" points="399.3987,-146.4805 389.3987,-149.9804 399.3987,-153.4805 399.3987,-146.4805"/>
<text text-anchor="middle" x="434.4177" y="-154.1804" font-family="Times,serif" font-size="14.00" fill="#000000">#0:ε/-0</text>
</g>
</g>
</svg>