<?xml version="1.0" encoding="UTF-8" standalone="no"?>
<!DOCTYPE svg PUBLIC "-//W3C//DTD SVG 1.1//EN"
 "http://www.w3.org/Graphics/SVG/1.1/DTD/svg11.dtd">
<!-- Generated by graphviz version 2.40.1 (20161225.0304)
 -->
<!-- Title: WFST Pages: 1 -->
<svg width="299pt" height="182pt"
 viewBox="0.00 0.00 299.00 182.00" xmlns="http://www.w3.org/2000/svg" xmlns:xlink="http://www.w3.org/1999/xlink">
<g id="graph0" class="graph" transform="scale(1 1) rotate(0) translate(4 178)">
<title>WFST</title>
<polygon fill="#ffffff" stroke="transparent" points="-4,4 -4,-178 295,-178 295,4 -4,4"/>
<!-- 0 -->
<g id="node1" class="node">
<title>0</title>
<ellipse fill="none" stroke="#000000" stroke-width="2" cx="18" cy="-98" rx="18" ry="18"/>
<text text-anchor="middle" x="18" y="-94.3" font-family="Times,serif" font-size="14.00" fill="#000000">0</text>
</g>
<!-- 3 -->
<g id="node2" class="node">
<title>3</title>
<ellipse fill="none" stroke="#000000" stroke-width="2" cx="140" cy="-98" rx="18" ry="18"/>
<text text-anchor="middle" x="140" y="-94.3" font-family="Times,serif" font-size="14.00" fill="#000000">3</text>
</g>
<!-- 0&#45;&gt;3 -->
<g id="edge1" class="edge">
<title>0&#45;&gt;3</title>
<path fill="none" stroke="#000000" d="M36.0015,-98C56.0042,-98 88.5573,-98 111.9169,-98"/>
<polygon fill="#000000" stroke="#000000" points="111.9247,-101.5001 121.9246,-98 111.9246,-94.5001 111.9247,-101.5001"/>
<text text-anchor="middle" x="79" y="-101.8" font-family="Times,serif" font-size="14.00" fill="#000000">#0:ε/&#45;5.76</text>
</g>
<!-- 1 -->
<g id="node3" class="node">
<title>1</title>
<ellipse fill="none" stroke="#000000" stroke-width="2" cx="269" cy="-144" rx="18" ry="18"/>
<text text-anchor="middle" x="269" y="-140.3" font-family="Times,serif" font-size="14.00" fill="#000000">1</text>
</g>
<!-- 3&#45;&gt;1 -->
<g id="edge4" class="edge">
<title>3&#45;&gt;1</title>
<path fill="none" stroke="#000000" d="M145.3953,-115.2575C150.3634,-127.9181 159.1049,-144.2072 173,-152 194.2138,-163.8974 222.3063,-159.6956 242.616,-153.8465"/>
<polygon fill="#000000" stroke="#000000" points="243.7018,-157.1739 252.1727,-150.8105 241.5824,-150.5025 243.7018,-157.1739"/>
<text text-anchor="middle" x="202.5" y="-162.8" font-family="Times,serif" font-size="14.00" fill="#000000">a:a/&#45;12.05</text>
</g>
<!-- 2 -->
<g id="node4" class="node">
<title>2</title>
<ellipse fill="none" stroke="#000000" stroke-width="2" cx="269" cy="-89" rx="18" ry="18"/>
<text text-anchor="middle" x="269" y="-85.3" font-family="Times,serif" font-size="14.00" fill="#000000">2</text>
</g>
<!-- 3&#45;&gt;2 -->
<g id="edge5" class="edge">
<title>3&#45;&gt;2</title>
<path fill="none" stroke="#000000" d="M158.2089,-96.7296C179.7214,-95.2287 215.7543,-92.7148 240.8649,-90.9629"/>
<polygon fill="#000000" stroke="#000000" points="241.1516,-94.4515 250.8837,-90.2639 240.6643,-87.4685 241.1516,-94.4515"/>
<text text-anchor="middle" x="202.5" y="-98.8" font-family="Times,serif" font-size="14.00" fill="#000000">b:b/&#45;7.96</text>
</g>
<!-- 4 -->
<g id="node5" class="node">
<title>4</title>
<ellipse fill="none" stroke="#000000" stroke-width="2" cx="269" cy="-22" rx="18" ry="18"/>
<ellipse fill="none" stroke="#000000" stroke-width="2" cx="269" cy="-22" rx="22" ry="22"/>
<text text-anchor="middle" x="269" y="-18.3" font-family="Times,serif" font-size="14.00" fill="#000000">4</text>
</g>
<!-- 3&#45;&gt;4 -->
<g id="edge6" class="edge">
<title>3&#45;&gt;4</title>
<path fill="none" stroke="#000000" d="M144.1999,-80.2806C148.7076,-65.4012 157.4202,-44.8784 173,-34 191.4442,-21.1216 216.8649,-18.4338 236.9142,-18.7988"/>
<polygon fill="#000000" stroke="#000000" points="236.9874,-22.3053 247.1321,-19.2499 237.2962,-15.3121 236.9874,-22.3053"/>
<text text-anchor="middle" x="202.5" y="-37.8" font-family="Times,serif" font-size="14.00" fill="#000000">&#45;1:&#45;1/&#45;9.98</text>
</g>
<!-- 1&#45;&gt;3 -->
<g id="edge2" class="edge">
<title>1&#45;&gt;3</title>
<path fill="none" stroke="#000000" d="M251.3868,-139.3451C231.9238,-134.0064 199.7864,-124.611 173,-114 170.4787,-113.0012 167.8828,-111.8919 165.307,-110.7364"/>
<polygon fill="#000000" stroke="#000000" points="166.7731,-107.5582 156.2348,-106.4645 163.7909,-113.8912 166.7731,-107.5582"/>
<text text-anchor="middle" x="202.5" y="-136.8" font-family="Times,serif" font-size="14.00" fill="#000000">#0:ε/&#45;7.6</text>
</g>
<!-- 2&#45;&gt;3 -->
<g id="edge3" class="edge">
<title>2&#45;&gt;3</title>
<path fill="none" stroke="#000000" d="M256.1922,-76.0001C249.5765,-70.2107 241.0113,-64.0254 232,-61 207.1413,-52.6542 196.9299,-50.2779 173,-61 166.3503,-63.9794 160.4899,-69.0345 155.6239,-74.4666"/>
<polygon fill="#000000" stroke="#000000" points="152.7207,-72.4938 149.23,-82.4971 158.197,-76.854 152.7207,-72.4938"/>
<text text-anchor="middle" x="202.5" y="-64.8" font-family="Times,serif" font-size="14.00" fill="#000000">#0:ε/0</text>
</g>
</g>
</svg>
