<?xml version="1.0" encoding="UTF-8" standalone="no"?>
<!DOCTYPE svg PUBLIC "-//W3C//DTD SVG 1.1//EN"
 "http://www.w3.org/Graphics/SVG/1.1/DTD/svg11.dtd">
<!-- Generated by graphviz version 2.40.1 (20161225.0304)
 -->
<!-- Title: WFST Pages: 1 -->
<svg width="299pt" height="205pt"
 viewBox="0.00 0.00 299.00 205.00" xmlns="http://www.w3.org/2000/svg" xmlns:xlink="http://www.w3.org/1999/xlink">
<g id="graph0" class="graph" transform="scale(1 1) rotate(0) translate(4 201)">
<title>WFST</title>
<polygon fill="#ffffff" stroke="transparent" points="-4,4 -4,-201 295,-201 295,4 -4,4"/>
<text text-anchor="middle" x="145.5" y="-7.8" font-family="Times,serif" font-size="14.00" fill="#000000">G_uni</text>
<!-- 0 -->
<g id="node1" class="node">
<title>0</title>
<ellipse fill="none" stroke="#000000" stroke-width="2" cx="18" cy="-121" rx="18" ry="18"/>
<text text-anchor="middle" x="18" y="-117.3" font-family="Times,serif" font-size="14.00" fill="#000000">0</text>
</g>
<!-- 3 -->
<g id="node2" class="node">
<title>3</title>
<ellipse fill="none" stroke="#000000" stroke-width="2" cx="140" cy="-121" rx="18" ry="18"/>
<text text-anchor="middle" x="140" y="-117.3" font-family="Times,serif" font-size="14.00" fill="#000000">3</text>
</g>
<!-- 0&#45;&gt;3 -->
<g id="edge1" class="edge">
<title>0&#45;&gt;3</title>
<path fill="none" stroke="#000000" d="M36.0015,-121C56.0042,-121 88.5573,-121 111.9169,-121"/>
<polygon fill="#000000" stroke="#000000" points="111.9247,-124.5001 121.9246,-121 111.9246,-117.5001 111.9247,-124.5001"/>
<text text-anchor="middle" x="79" y="-124.8" font-family="Times,serif" font-size="14.00" fill="#000000">#0:ε/&#45;5.76</text>
</g>
<!-- 1 -->
<g id="node3" class="node">
<title>1</title>
<ellipse fill="none" stroke="#000000" stroke-width="2" cx="269" cy="-167" rx="18" ry="18"/>
<text text-anchor="middle" x="269" y="-163.3" font-family="Times,serif" font-size="14.00" fill="#000000">1</text>
</g>
<!-- 3&#45;&gt;1 -->
<g id="edge4" class="edge">
<title>3&#45;&gt;1</title>
<path fill="none" stroke="#000000" d="M145.3953,-138.2575C150.3634,-150.9181 159.1049,-167.2072 173,-175 194.2138,-186.8974 222.3063,-182.6956 242.616,-176.8465"/>
<polygon fill="#000000" stroke="#000000" points="243.7018,-180.1739 252.1727,-173.8105 241.5824,-173.5025 243.7018,-180.1739"/>
<text text-anchor="middle" x="202.5" y="-185.8" font-family="Times,serif" font-size="14.00" fill="#000000">a:a/&#45;12.05</text>
</g>
<!-- 2 -->
<g id="node4" class="node">
<title>2</title>
<ellipse fill="none" stroke="#000000" stroke-width="2" cx="269" cy="-112" rx="18" ry="18"/>
<text text-anchor="middle" x="269" y="-108.3" font-family="Times,serif" font-size="14.00" fill="#000000">2</text>
</g>
<!-- 3&#45;&gt;2 -->
<g id="edge5" class="edge">
<title>3&#45;&gt;2</title>
<path fill="none" stroke="#000000" d="M158.2089,-119.7296C179.7214,-118.2287 215.7543,-115.7148 240.8649,-113.9629"/>
<polygon fill="#000000" stroke="#000000" points="241.1516,-117.4515 250.8837,-113.2639 240.6643,-110.4685 241.1516,-117.4515"/>
<text text-anchor="middle" x="202.5" y="-121.8" font-family="Times,serif" font-size="14.00" fill="#000000">b:b/&#45;7.96</text>
</g>
<!-- 4 -->
<g id="node5" class="node">
<title>4</title>
<ellipse fill="none" stroke="#000000" stroke-width="2" cx="269" cy="-45" rx="18" ry="18"/>
<ellipse fill="none" stroke="#000000" stroke-width="2" cx="269" cy="-45" rx="22" ry="22"/>
<text text-anchor="middle" x="269" y="-41.3" font-family="Times,serif" font-size="14.00" fill="#000000">4</text>
</g>
<!-- 3&#45;&gt;4 -->
<g id="edge6" class="edge">
<title>3&#45;&gt;4</title>
<path fill="none" stroke="#000000" d="M144.1999,-103.2806C148.7076,-88.4012 157.4202,-67.8784 173,-57 191.4442,-44.1216 216.8649,-41.4338 236.9142,-41.7988"/>
<polygon fill="#000000" stroke="#000000" points="236.9874,-45.3053 247.1321,-42.2499 237.2962,-38.3121 236.9874,-45.3053"/>
<text text-anchor="middle" x="202.5" y="-60.8" font-family="Times,serif" font-size="14.00" fill="#000000">&#45;1:&#45;1/&#45;9.98</text>
</g>
<!-- 1&#45;&gt;3 -->
<g id="edge2" class="edge">
<title>1&#45;&gt;3</title>
<path fill="none" stroke="#000000" d="M251.3868,-162.3451C231.9238,-157.0064 199.7864,-147.611 173,-137 170.4787,-136.0012 167.8828,-134.8919 165.307,-133.7364"/>
<polygon fill="#000000" stroke="#000000" points="166.7731,-130.5582 156.2348,-129.4645 163.7909,-136.8912 166.7731,-130.5582"/>
<text text-anchor="middle" x="202.5" y="-159.8" font-family="Times,serif" font-size="14.00" fill="#000000">#0:ε/&#45;7.6</text>
</g>
<!-- 2&#45;&gt;3 -->
<g id="edge3" class="edge">
<title>2&#45;&gt;3</title>
<path fill="none" stroke="#000000" d="M256.1922,-99.0001C249.5765,-93.2107 241.0113,-87.0254 232,-84 207.1413,-75.6542 196.9299,-73.2779 173,-84 166.3503,-86.9794 160.4899,-92.0345 155.6239,-97.4666"/>
<polygon fill="#000000" stroke="#000000" points="152.7207,-95.4938 149.23,-105.4971 158.197,-99.854 152.7207,-95.4938"/>
<text text-anchor="middle" x="202.5" y="-87.8" font-family="Times,serif" font-size="14.00" fill="#000000">#0:ε/0</text>
</g>
</g>
</svg>
