<?xml version="1.0" encoding="UTF-8" standalone="no"?><!DOCTYPE svg PUBLIC "-//W3C//DTD SVG 1.1//EN" "http://www.w3.org/Graphics/SVG/1.1/DTD/svg11.dtd"><!-- Generated by graphviz version 2.40.1 (20161225.0304)
 --><!-- Title: WFST Pages: 1 --><svg xmlns="http://www.w3.org/2000/svg" xmlns:xlink="http://www.w3.org/1999/xlink" width="303pt" height="217pt" viewBox="0.00 0.00 303.37 216.60">
<g id="graph0" class="graph" transform="scale(1 1) rotate(0) translate(4 212.6)">
<title>WFST</title>
<polygon fill="#ffffff" stroke="transparent" points="-4,4 -4,-212.6 299.3654,-212.6 299.3654,4 -4,4"/>
<text text-anchor="middle" x="147.6827" y="-8.2" font-family="Times,serif" font-size="14.00" fill="#000000">G_uni</text>
<!-- 0 -->
<g id="node1" class="node">
<title>0</title>
<ellipse fill="none" stroke="#000000" stroke-width="2" cx="18" cy="-126.8" rx="18" ry="18"/>
<text text-anchor="middle" x="18" y="-122.6" font-family="Times,serif" font-size="14.00" fill="#000000">0</text>
</g>
<!-- 3 -->
<g id="node2" class="node">
<title>3</title>
<ellipse fill="none" stroke="#000000" stroke-width="2" cx="143.1024" cy="-126.8" rx="18" ry="18"/>
<text text-anchor="middle" x="143.1024" y="-122.6" font-family="Times,serif" font-size="14.00" fill="#000000">3</text>
</g>
<!-- 0&#45;&gt;3 -->
<g id="edge1" class="edge">
<title>0-&gt;3</title>
<path fill="none" stroke="#000000" d="M36.191,-126.8C56.7594,-126.8 90.5122,-126.8 114.5898,-126.8"/>
<polygon fill="#000000" stroke="#000000" points="114.8895,-130.3001 124.8895,-126.8 114.8894,-123.3001 114.8895,-130.3001"/>
<text text-anchor="middle" x="80.5512" y="-131" font-family="Times,serif" font-size="14.00" fill="#000000">#0:ε/-5.76</text>
</g>
<!-- 1 -->
<g id="node3" class="node">
<title>1</title>
<ellipse fill="none" stroke="#000000" stroke-width="2" cx="273.3654" cy="-175.8" rx="18" ry="18"/>
<text text-anchor="middle" x="273.3654" y="-171.6" font-family="Times,serif" font-size="14.00" fill="#000000">1</text>
</g>
<!-- 3&#45;&gt;1 -->
<g id="edge4" class="edge">
<title>3-&gt;1</title>
<path fill="none" stroke="#000000" d="M147.8528,-144.456C152.5669,-158.1417 161.2806,-176.1801 176.1024,-184.8 197.5468,-197.2713 226.2425,-192.551 246.9001,-186.2143"/>
<polygon fill="#000000" stroke="#000000" points="248.2518,-189.4522 256.6084,-182.9393 246.0142,-182.8194 248.2518,-189.4522"/>
<text text-anchor="middle" x="206.2339" y="-196" font-family="Times,serif" font-size="14.00" fill="#000000">a:a/-12.05</text>
</g>
<!-- 2 -->
<g id="node4" class="node">
<title>2</title>
<ellipse fill="none" stroke="#000000" stroke-width="2" cx="273.3654" cy="-117.8" rx="18" ry="18"/>
<text text-anchor="middle" x="273.3654" y="-113.6" font-family="Times,serif" font-size="14.00" fill="#000000">2</text>
</g>
<!-- 3&#45;&gt;2 -->
<g id="edge5" class="edge">
<title>3-&gt;2</title>
<path fill="none" stroke="#000000" d="M161.2149,-125.5486C182.9911,-124.044 219.7825,-121.5021 245.2581,-119.742"/>
<polygon fill="#000000" stroke="#000000" points="245.6718,-123.2218 255.4067,-119.0408 245.1892,-116.2385 245.6718,-123.2218"/>
<text text-anchor="middle" x="206.2339" y="-128" font-family="Times,serif" font-size="14.00" fill="#000000">b:b/-7.96</text>
</g>
<!-- 4 -->
<g id="node5" class="node">
<title>4</title>
<ellipse fill="none" stroke="#000000" stroke-width="2" cx="273.3654" cy="-46.8" rx="18" ry="18"/>
<ellipse fill="none" stroke="#000000" stroke-width="2" cx="273.3654" cy="-46.8" rx="22" ry="22"/>
<text text-anchor="middle" x="273.3654" y="-42.6" font-family="Times,serif" font-size="14.00" fill="#000000">4</text>
</g>
<!-- 3&#45;&gt;4 -->
<g id="edge6" class="edge">
<title>3-&gt;4</title>
<path fill="none" stroke="#000000" d="M146.9417,-108.9753C151.2726,-93.4408 159.9295,-71.6297 176.1024,-60 194.7171,-46.6144 220.6318,-43.6528 241.0312,-43.8556"/>
<polygon fill="#000000" stroke="#000000" points="241.0109,-47.357 251.1281,-44.2116 241.2577,-40.3613 241.0109,-47.357"/>
<text text-anchor="middle" x="206.2339" y="-65" font-family="Times,serif" font-size="14.00" fill="#000000">-1:-1/-9.98</text>
</g>
<!-- 1&#45;&gt;3 -->
<g id="edge2" class="edge">
<title>1-&gt;3</title>
<path fill="none" stroke="#000000" d="M255.7845,-171.2872C236.0197,-165.9652 203.1546,-156.3635 176.1024,-144.8 173.2539,-143.5824 170.3271,-142.1975 167.4491,-140.7491"/>
<polygon fill="#000000" stroke="#000000" points="169.0496,-137.6362 158.5766,-136.0335 165.7643,-143.8174 169.0496,-137.6362"/>
<text text-anchor="middle" x="206.2339" y="-169" font-family="Times,serif" font-size="14.00" fill="#000000">#0:ε/-7.6</text>
</g>
<!-- 2&#45;&gt;3 -->
<g id="edge3" class="edge">
<title>2-&gt;3</title>
<path fill="none" stroke="#000000" d="M261.0364,-104.2918C254.4129,-98.0451 245.6996,-91.2915 236.3654,-88 211.1063,-79.0929 200.4141,-76.7617 176.1024,-88 169.0387,-91.2652 162.9319,-96.8704 157.9588,-102.8209"/>
<polygon fill="#000000" stroke="#000000" points="155.0619,-100.8511 151.8966,-110.9621 160.6763,-105.0318 155.0619,-100.8511"/>
<text text-anchor="middle" x="206.2339" y="-92" font-family="Times,serif" font-size="14.00" fill="#000000">#0:ε/-0</text>
</g>
</g>
</svg>